<svg width="45" height="45" viewBox="0 0 45 45" fill="none" xmlns="http://www.w3.org/2000/svg">
<path d="M22.5 34.2188C21.7234 34.2188 21.0938 34.8484 21.0938 35.625C21.0938 36.4017 21.7234 37.0313 22.5 37.0313H33.75C35.5622 37.0313 37.0313 35.5622 37.0313 33.75V11.25C37.0313 9.43782 35.5622 7.96875 33.75 7.96875H22.5C21.7234 7.96875 21.0938 8.59835 21.0938 9.375C21.0938 10.1517 21.7234 10.7813 22.5 10.7813L33.75 10.7813C34.0089 10.7813 34.2188 10.9911 34.2188 11.25L34.2188 33.75C34.2188 34.0089 34.0089 34.2188 33.75 34.2188H22.5Z" fill="#FAFBFA"/>
<path fill-rule="evenodd" clip-rule="evenodd" d="M6.09375 24.591C6.09375 25.8855 7.14308 26.9348 8.4375 26.9348H17.0861C17.0984 27.0725 17.1112 27.2101 17.1245 27.3477L17.2258 28.39C17.3804 29.9802 19.069 30.9325 20.5098 30.242C23.574 28.7735 26.5339 26.5698 28.8842 24.1159C29.7546 23.2071 29.7546 21.774 28.8842 20.8652L28.6982 20.671C26.3479 18.2171 23.574 16.2076 20.5098 14.7391C19.069 14.0486 17.3804 15.0009 17.2258 16.5911L17.1245 17.6334C17.1112 17.771 17.0984 17.9086 17.0861 18.0463H8.4375C7.14308 18.0463 6.09375 19.0957 6.09375 20.3901V24.591ZM19.7873 25.37C19.7076 24.6632 19.1087 24.1223 18.3899 24.1223H8.90625V20.8588H18.3899C19.1326 20.8588 19.7472 20.2813 19.7935 19.5401C19.8275 18.9947 19.8709 18.4497 19.9238 17.9055L19.9532 17.603C22.3998 18.8638 24.6266 20.5142 26.5457 22.4905C25.7444 23.3157 24.8895 24.0841 23.9873 24.791C22.7288 25.7772 21.3783 26.6437 19.9532 27.3781L19.9238 27.0756C19.8709 26.5313 19.8275 25.9864 19.7935 25.441C19.792 25.4172 19.7899 25.3935 19.7873 25.37Z" fill="#FAFBFA"/>
</svg>
